<svg xmlns="http://www.w3.org/2000/svg" xmlns:xlink="http://www.w3.org/1999/xlink" width="60" height="60" viewBox="0 0 60 60">
    <defs>
        <path id="nkheiw18ca" d="M0.001 0L60 0 60 60 0.001 60z"/>
    </defs>
    <g fill="none" fill-rule="evenodd">
        <g>
            <g>
                <g transform="translate(-158 -178) translate(158 178)">
                    <mask id="go8yiwmujb" fill="#fff">
                        <use xlink:href="#nkheiw18ca"/>
                    </mask>
                    <path fill="#AC2117" d="M57.107 33.635c1.08-1.023 1.307-2.54 2.66-3.25-.123-.158.334-.607.212-.76-.958-1.181-1.916-2.172-2.872-3.079.708-1.154 1.016-2.554 1.927-3.876.167-.243.148-.574-.043-.8-1.335-1.588-2.513-1.514-3.725-2.17.423-1.425.737-2.562.975-4.306-.165-.015-.272-.418-.432-.445-1.533-.269-2.789-1.075-4.102-1.39.035-1.363.01-2.788-.168-4.364-.027-.248-.23-.45-.478-.477-1.58-.176-3.01-.202-4.378-.166-.328-1.36-1.303-2.616-1.444-4.26-.008-.102-.563-.128-.564-.235-1.75.237-2.723.525-4.152.946-.636-1.168-1.007-2.295-1.845-3.523-.174-.256-.504-.357-.79-.239-1.502.615-3.094 1.231-4.246 1.935-.989-1.043-2.558-1.96-3.452-3.116-.051-.068-.148-.08-.214-.027-1.34 1.05-2.435 2.102-3.43 3.154-1.699-.405-2.532-1.392-3.959-2.08-.103-.049-.345.084-.454.038-1.066 1.407-1.743 2.564-2.452 3.875-1.331-.396-2.741-.748-4.34-.99-.12-.018-.312.317-.436.3-.28 1.659-1.034 2.786-1.379 4.237-2.372.329-3.008.013-4.603.178-.124.012-.226.113-.24.236-.195 1.665-.218 3.16-.176 4.59-1.383.326-2.813.735-4.359 1.345-.134.053-.206.212-.16.348.596 1.806.551 3.077.96 4.442-1.226.66-2.213.918-3.509 1.828-.062.044-.175.207-.272.332-.073.095-.089.22-.043.33.655 1.561 1.232 3.134 1.986 4.352-.96.902-1.917 2.427-2.875 3.73-.128.175-.106.535-.234.7 1.086 1.39 2.02 1.632 3.108 2.655-.308 1.605-.97 2.66-1.955 3.916-.148.19-.113.468.082.61 1.281.936 2.508 1.669 3.712 2.317-.405 1.348-.761 2.778-1.005 4.404-.025.166.072.334.23.395 1.536.604 2.958 1.011 4.334 1.336.731 1.553-.053 2.59.166 4.34.184-.013.64.426.82.415 1.542-.09 2.704-.095 4.033.249.308 1.296.69 2.634 1.242 4.071.066.171.383.246.454.421 1.855-.748 3.073-.922 4.46-.946.66 1.22 1.766 2.256 2.444 3.72.092.2.307.31.523.264 1.875-.41 2.693-1.412 3.884-2.143.9.945 1.41 1.89 2.461 2.837.15.135.564.026.739.16 1.436-1.445 2.896-1.91 3.921-2.987 1.335.594 3.224 1.043 4.807 1.992.183.11.423.07.546-.104.925-1.306 1.424-2.642 1.516-3.722 1.329.392 2.738.737 4.335.975.236.034.471-.067.616-.256 1.32-1.717 1.052-3.052 1.209-4.267 1.491.038 2.402.08 4.155-.142.02-.162.69-.395.708-.554.171-1.554.196-2.963.16-4.311 1.45-.348 2.687-1.428 4.343-1.444-.018-.14.203-.287.173-.418-.348-1.527-1.348-2.645-.956-4.279 1.171-.672 2.487-1.709 3.712-2.403.211-.119.32-.357.277-.594-.357-1.912-1.42-2.665-2.148-3.85" mask="url(#go8yiwmujb)"/>
                </g>
                <path fill="#FFF" d="M24.915 44.234l-.55-.673c-.836-1.02-1.56-1.899-2.318-3.099-.468-.74-.939-1.652-1.393-2.534-.392-.76-.798-1.545-1.195-2.206-.483-.803-.827-1.49-1.082-2.16-.447-1.177-.388-2.357-.265-3.779.01-.123.03-.245.049-.368.024-.152.05-.305.059-.458.073-1.14.343-2.872.865-4 .155-.337 1.575-2.275 2.402-3.065.504-.482 1.434-1.07 2.074-1.308.098-.038.227-.074.37-.113.27-.076.577-.161.846-.293l.392-.194c-.26-.11-1.274-.618-1.5-.705-.283-.106-.394-.28-.385-.601.016-.568-.033-.505.14-1.016.073-.208.113-.292.239-.288.055.002.128.022.23.057.115.04.457.252.82.477 1.342.829 2.732 1.024 3.334.876.962-.241 1.803-1.011 2.066-1.473.035-.063.07-.12.1-.172.146-.258.15-.426.445-.82.185-.245.358-.5.531-.758.154-.227.307-.454.468-.673.147-.2.332-.388.561-.574.909-.734 1.891-1.464 3.037-1.61.707-.088 2.18-.05 2.892-.014l.093.004c.966.05 1.844.507 2.685 1.397.369.389.652.93.902 1.406.105.201.113.517.111.736-.01.717-.05.913-.091 1.664-.01.163-.072.299-.175.382-.104.084-.239.104-.377.066-.398-.116-.498-.194-.712-.364-.087-.068-.189-.15-.33-.248-.17-.12-.244-.322-.24-.65.003-.23.011.075.02-.155.005-.148.012-.297.015-.445.02-.669-.691-1.295-1.16-1.71l-.131-.115c-.446-.402-1.725-.271-2.207-.154-.865.21-1.7.667-2.628 1.439-.619.514-1.694 1.551-2.268 2.482-.187.304-.215.685-.075 1.017.143.334.426.552.758.583.301.025.612.041.856.055.196.011.348.02.415.028.836.112 1.909-.139 2.856-.364.274-.065.536-.128.773-.176.153-.03.315-.023.444.017.145.046.242.2.24.373-.004.213-.01.428-.017.641l-.01.321c-.012.453-.012.49-.502.661-.283.1-.59.195-.94.29-.136.037-.195.057-.327.098l-.379.121.286.383c.065.089.12.165.18.237.77.94 1.02 1.607 1.368 2.806.167.57.314 1.304.272 1.65-.044.355-.045.703-.047 1.039 0 .28 0 .569-.027.854-.08.85-.398 1.596-.734 2.386-.147.345-.635.702-.762 1.064l-.124.346c-.243.664-1.12 1.347-1.198 2.29-.242 2.931 1.843 3.505 2.359 4.194.058.076.111.15.16.218.227.314.563.537.892.754 1.022.678 1.996.943 2.907 1.704.231.193.427.419.583.67.122.196.15.455.073.676-.277.798-.698 1.16-1.335 1.706-.242.208-.515.442-.786.707-.88.519-2.074.96-5.003 1.424-.174-.002-.345.02-.51.043-.128.016-.255.033-.383.038l-.44.019c-.523.023-1.408.058-1.575.051l-.045-.003c-1.324-.09-2.199-.15-3.43-.661-.213-.09-.422-.19-.63-.29-.172-.084-.344-.165-.518-.241-.854-.376-1.605-.986-2.364-1.92" transform="translate(-158 -178) translate(158 178)"/>
                <path fill="#AC2117" d="M27.349 38.474c-.196-.39-.399-.794-.522-1.223-.06-.207-.17-.388-.274-.563-.1-.165-.203-.336-.26-.527-.056-.182-.115-.363-.174-.545-.058-.175-.115-.35-.17-.527-.183-.599-.348-1.238-.52-2.011-.177-.807-.328-1.677-.223-2.579.05-.434.119-.89.275-1.295.199-.517.642-.925 1.186-1.093.454-.14.778-.223 1.144-.223.22 0 .453.029.738.095.727.172 1.245.461 1.675.938l.011.049c.016.064.036.141.05.22.016.079.038.158.06.239.048.176.094.344.067.491l-.032.18c-.052.3-.106.612-.239.896-.125.269-.742 1.563-1.333 2.435-.045.014-.093.025-.138.03-.075.009-.26.025-.293-.07-.011-.033-.032-.058-.054-.077.142-1.224.635-2.389.707-3.611l.008-.032c.018-.06.003-.117-.01-.164-.005-.015-.009-.03-.01-.046l-.008-.041-.035-.022c-.532-.338-1.131-.318-1.697-.268l-.038.004-.025.029c-.02.021-.04.046-.064.07-.063.07-.133.147-.194.236-.039.057-.11.272-.267.765-.07.221-.144.45-.166.497l-.008.024c-.074.437.178 1.782.308 2.218.072.241.112.5.15.75.033.201.065.41.113.612.094.384.223.765.348 1.133l.071.215c.102.302.222.594.358.87.104.21.206.423.308.635.324.675.66 1.373 1.072 2.018.026.041.05.086.073.131.064.122.132.248.244.317.364.324.53.521.725.75.064.076.13.156.207.241.036.041.082.063.123.082l.041.02.067.037.05-.057c.15-.176.085-.363.038-.502l-.013-.038c-.27-.789-.547-1.605-.7-2.442-.05-.27-.054-.544-.053-.8.003-.327-.024-.532-.052-.75-.02-.158-.042-.322-.055-.552-.008-.145.03-.354.067-.556.03-.164.058-.32.061-.44.005-.184.063-.374.119-.56.018-.06.038-.122.054-.184.04-.149.497-.965.799-1.504.206-.37.368-.66.411-.754.097-.213.21-.436.353-.702.45-.834.648-1.525.899-2.67l.004-.02-.004-.021c-.146-.64-.413-1.508-1.062-1.62-.158-.027-.614-.05-1.055-.074-.365-.02-.74-.04-.895-.059-.198-.025-.294-.035-.344-.04-.046-.006-.046-.005-.064-.01l-.034-.009-.18-.042c-.182-.04-.406-.089-.534-.145-.394-.177-1.682-.453-2.107-.472-.529-.028-1.18.343-1.701.955-.238.25-.327.558-.412.858-.037.123-.073.252-.12.37-.088.225-.772 2.987-.742 3.846.002.04.009.092.02.15.043.759.325 1.38.575 2.181.34 1.088 1.369 3.266 1.847 4.304l.106.237c.057.137.132.302.215.482l.373.845c-.047.04-.09.086-.13.139-.02-.013-.494-.482-.516-.493-.556-1.355-2.279-2.917-2.655-4.382-.028-.11-.076-.197-.137-.267-.055-.145-.108-.29-.16-.435-.577-1.6-1.115-2.947-.888-4.688.006-.054.008-.103.003-.15.294-1.159.849-3.079 1.271-3.979.442-.562 1.423-1.157 2.156-1.476 1.344-.116 2.226.116 3.29.553.387.158.817.226 1.243.197.526-.038.905-.034 1.272-.031.28.002.544.004.86-.01.08.001.304.12.436.194.078.045.147.085.2.107l.476.375c.355.295.685.6.83 1.082.016.124.04.238.065.36.044.211.09.429.096.71.002.098.017.166.031.225.027.113.05.22-.018.58-.095.214-.286.786-.486 1.391-.224.672-.477 1.434-.562 1.57-.12.198-.282.427-.452.67-.395.565-.843 1.205-1.004 1.722-.043.14-.336 1.277-.36 1.424-.027.16.008.507.05.947.047.473.105 1.061.1 1.571v.02l.008.02c.095.205.126.427.16.662.032.228.065.464.161.687.15.344.288.7.423 1.044l.16.407c.106.268.235.463.404.615l.167.148c.424.375 1.295 1.147 1.551 1.535-.041.128-.416.29-.78.447l-.18.079c-.109.047-.228.048-.334.004l-.024-.009c-.603-.245-1.61-.655-2.167-.895-.468-.202-.883-.504-1.23-.897-.314-.353-.643-.69-.98-1-.726-.67-1.2-1.512-1.568-2.244l-.021-.044zm3.863 6.744c.45.074.793.107 1.085.117.365.013.65-.012.958-.036.349-.03.71-.06 1.253-.041v-.003c.078-.001.232-.028.586-.09.459-.079 1.086-.186 1.328-.208.417-.039 1.367-.256 1.667-.494.242-.193.47-.304.69-.412.255-.124.495-.242.688-.461.202-.23.292-.451.274-.671-.02-.225-.149-.428-.399-.62-.39-.3-.81-.57-1.252-.807-.542-.29-.813-.045-1.187-.445-.135-.143-.28-.298-.453-.468-.767-.755-2.25-1.43-2.773-2.54l-.075-.155c-.082-.25-.136-.513-.193-.804-.176-.887-.093-2.247.098-3.293.15-.824 1.957-3.13 2.21-3.676.226-.481.276-.99.327-1.484.019-.192.037-.383.068-.573.016-.103.002-.241-.02-.332-.027-.113-.03-.241-.031-.404-.007-.414-.019-1.04-.433-2.259-.54-1.106-1.048-2.01-2.277-2.74-.321-.161-.95-.028-1.745.138-.739.153-1.574.328-2.302.303-.11-.01-.425-.1-.792-.204-.925-.263-2.19-.628-2.802-.522-.7.063-1.835.503-2.08.662-.604.39-1.065 1.14-1.4 1.752-.061.113-.138.217-.215.323-.178.243-.377.518-.414.898-.407.583-.567 1.27-.679 1.927-.053.313-.12.624-.19.936-.057.266-.115.532-.164.8-.113.608-.204 1.21-.285 1.771-.16 1.095.458 2.48.936 3.426l.34.674c.441.873.857 1.698 1.422 2.745.34.626.78 1.276 1.208 1.902.444.653.903 1.328 1.243 1.972l.034.045c.009.01.93.93 1.324 1.365.6.665 1.361 1.041 2.119 1.413.542.267 2.097.566 2.303.573z" transform="translate(-158 -178) translate(158 178)"/>
            </g>
        </g>
    </g>
</svg>
