<?xml version="1.0" encoding="utf-8"?>
<!-- Generator: Adobe Illustrator 19.2.1, SVG Export Plug-In . SVG Version: 6.00 Build 0)  -->
<svg version="1.1" id="layer" xmlns="http://www.w3.org/2000/svg" xmlns:xlink="http://www.w3.org/1999/xlink" x="0px" y="0px"
	 viewBox="0 0 652 652" style="enable-background:new 0 0 652 652;" xml:space="preserve">
<style type="text/css">
	.st0{fill:#225CA7;}
</style>
<g>
	<path class="st0" d="M149,290.7c0-1.5-0.2-15.6-8.3-29.4c-4.9-8.5-11.8-15.2-20.3-20c-10-5.8-22.2-8.6-36.1-8.6
		c-13.8,0-26,2.9-36,8.6c-8.4,4.8-15.2,11.7-20.2,20C20.2,275,20,288.6,20,290.1v65.7c0,1.5,0.2,14.7,8.3,28.2
		c7.6,12.6,23.5,27.6,56,27.6c32.6,0,48.5-15.1,56.3-27.9c8.1-13.4,8.3-26.9,8.3-28.4v-38.6h-15l0,0H75.1l7.2,27.2h36.6v11.3
		c0,0.6-0.4,7.5-4.5,13.7c-5.4,8.3-15.4,12.5-30,12.5c-14.3,0-24.3-4.1-29.7-12.3c-4-6.3-4.4-12.9-4.4-13.5v-65.4
		c0-0.6,0.4-7.8,4.5-14.4c5.4-8.6,15.1-12.8,29.6-12.8c14.6,0,24.3,4.2,29.8,12.8c4.3,7,4.5,15,4.5,15c0-0.1,0-0.2,0-0.2L149,290.7
		L149,290.7z"/>
	<path class="st0" d="M348.8,290.7c0-1.5-0.2-15.6-8.3-29.4c-4.9-8.5-11.8-15.2-20.3-20c-10-5.8-22.2-8.6-36-8.6
		c-13.8,0-26,2.9-35.9,8.6c-8.5,4.8-15.2,11.6-20.2,20c-8,13.7-8.2,27.2-8.2,28.7v65.7c0,1.5,0.2,14.7,8.3,28.2
		c7.6,12.6,23.5,27.6,56,27.6c32.6,0,48.5-15.1,56.3-27.9c8.1-13.4,8.3-26.9,8.3-28.4v-38.5h-15.1l0,0h-58.8l7.2,27.2h36.5v11.3
		c0,0.6-0.4,7.5-4.5,13.7c-5.4,8.3-15.4,12.5-30,12.5c-14.3,0-24.3-4.1-29.7-12.3c-4-6.3-4.4-12.9-4.4-13.5v-65.4
		c0-0.6,0.4-7.8,4.5-14.4c5.4-8.6,15.1-12.8,29.6-12.8c14.6,0,24.3,4.2,29.8,12.8c4.3,7,4.5,15,4.5,15c0-0.1,0-0.2,0-0.2
		L348.8,290.7L348.8,290.7z"/>
	<rect x="169.2" y="236.1" class="st0" width="30.2" height="172"/>
	<path class="st0" d="M441.8,236.1l-26.5,78.5L386,236.1h-32.2l45.9,123.1c-2.6,6.1-5.5,11.8-8.3,15.4c-3.1,2.9-5.8,3.2-18.5,3.1
		c-1.7,0-3.3,0-5.1,0v30.3c1.7,0,3.3,0,4.9,0c1.4,0,2.7,0,4.1,0c12.8,0,24.9-1,36.5-12.5c0.4-0.4,0.7-0.7,1-1.1
		c11.8-14.4,20.2-41.5,21.4-45.8l37.8-112.5h-31.9v-0.1H441.8z"/>
	<path class="st0" d="M471.1,408.1l13.5-36.8h64.5l13.5,36.8h32.2l-13.5-36.8H620l-7.2-27.2h-41.7l-39.9-107.9h-29.2l-63.4,172h32.3
		v-0.1H471.1z M516.9,283.8l22.3,60.3h-44.5L516.9,283.8z"/>
</g>
</svg>
